# xmcd
#
# Track frame offsets:
#	150
#	17940
#	39067
#	60965
#	87387
#	107377
#	128497
#	151010
#	166777
#	181872
#	200035
#	218985
#	242535
#	269275
#	293880
#
# Disc length: 4254 seconds
#
# Revision: 0
# Processed by: cddbd v1.4PL0 Copyright (c) Steve Scherf et al.
# Submitted via: EasyCDDAExtractor 4.6.9.1
#
DISCID=ba109c0f
DTITLE=Peabo Byrson - Anthology [CD2]
DYEAR=2001
DGENRE=R&B
TTITLE0=Lovers After All
TTITLE1=Let The Feeling Flow
TTITLE2=There's No Guarantee
TTITLE3=Impossible
TTITLE4=Give Me Your Love
TTITLE5=We Don't Have To Talk (about love)
TTITLE6=Remember When (so much in love)
TTITLE7=Tonight, I Celebrate My Love
TTITLE8=Maybe
TTITLE9=You're Lookin' Like Love To Me
TTITLE10=If Ever You're In My Arms Again
TTITLE11=Without You
TTITLE12=Show and Tell
TTITLE13=All My Love
TTITLE14=Can You Stop the Rain?
EXTD=
EXTT0=Peabo Bryons and Melissa Manchester
EXTT1=
EXTT2=
EXTT3=
EXTT4=
EXTT5=
EXTT6=
EXTT7=Peabo Bryson and Roberta Flack
EXTT8=
EXTT9=
EXTT10=
EXTT11=(Love theme from "Leonard Pt. 6") duet with Regina Belle
EXTT12=
EXTT13=
EXTT14=
PLAYORDER=
